<?xml version="1.0" standalone="no"?>
<!DOCTYPE svg PUBLIC "-//W3C//DTD SVG 20010904//EN"
 "http://www.w3.org/TR/2001/REC-SVG-20010904/DTD/svg10.dtd">
<svg version="1.0" xmlns="http://www.w3.org/2000/svg"
 width="249.000000pt" height="247.000000pt" viewBox="0 0 249.000000 247.000000"
 preserveAspectRatio="xMidYMid meet">
<metadata>
Created by potrace 1.16, written by Peter Selinger 2001-2019
</metadata>
<g transform="translate(0.000000,247.000000) scale(0.100000,-0.100000)"
fill="#000000" stroke="none">
<path d="M1240 1799 c-46 -4 -92 -15 -118 -28 -164 -84 -167 -408 -4 -490 50
-25 87 -31 231 -40 160 -11 161 -11 161 -156 0 -111 -8 -148 -36 -159 -60 -23
-316 -17 -351 9 -13 10 -19 31 -23 82 l-5 68 -50 0 c-49 0 -50 -1 -53 -33 -6
-61 25 -139 76 -192 61 -63 101 -73 252 -68 133 5 193 26 242 88 79 100 74
338 -8 411 -55 49 -96 61 -252 75 -85 8 -163 19 -173 25 -17 9 -19 22 -19 134
0 154 -8 148 185 153 178 4 188 0 195 -83 l5 -60 53 -3 c51 -3 52 -3 52 26 0
60 -31 136 -74 178 -58 59 -137 76 -286 63z"/>
</g>
</svg>
