<?xml version="1.0" standalone="no"?>
<!DOCTYPE svg PUBLIC "-//W3C//DTD SVG 20010904//EN"
 "http://www.w3.org/TR/2001/REC-SVG-20010904/DTD/svg10.dtd">
<svg version="1.0" xmlns="http://www.w3.org/2000/svg"
 width="437.000000pt" height="187.000000pt" viewBox="0 0 437.000000 187.000000"
 preserveAspectRatio="xMidYMid meet">

<g transform="translate(0.000000,187.000000) scale(0.100000,-0.100000)"
fill="#0767ff" stroke="none">
<path d="M163 1789 c-43 -13 -81 -60 -88 -112 -3 -23 -5 -375 -3 -782 3 -688
4 -743 21 -768 42 -65 11 -62 662 -62 568 0 591 1 622 20 66 39 63 4 63 845 0
841 3 806 -63 845 -31 19 -56 20 -607 22 -332 1 -588 -2 -607 -8z m899 -271
c55 -33 82 -73 103 -153 15 -60 20 -160 9 -189 -5 -13 -24 -16 -105 -16 -113
0 -119 5 -119 84 0 36 -4 48 -21 57 -30 15 -202 8 -223 -10 -24 -20 -19 -34 6
-17 44 31 53 16 13 -19 -51 -44 -37 -46 18 -3 31 25 51 33 89 35 26 1 48 -1
48 -5 -1 -15 -121 -93 -137 -90 -13 2 -3 14 35 41 29 21 52 41 52 43 0 6 -13
-2 -83 -51 -80 -57 -75 -84 19 -98 37 -6 46 -3 100 38 66 49 89 40 28 -12 -21
-18 -34 -33 -28 -33 6 0 19 9 29 20 17 19 45 27 45 13 0 -3 -8 -16 -17 -27
-18 -20 -18 -20 9 -3 15 9 35 17 44 17 14 0 15 -2 3 -17 -12 -14 -9 -14 18 2
37 21 59 12 28 -12 -15 -12 -16 -14 -3 -10 9 3 18 2 20 -2 2 -4 23 -18 48 -32
36 -19 51 -36 75 -84 29 -58 30 -64 29 -200 -1 -204 -31 -276 -133 -324 -54
-25 -62 -26 -247 -26 l-191 0 -48 30 c-73 46 -104 108 -116 235 -5 56 -7 105
-4 110 3 4 -4 6 -15 3 -11 -3 -20 -1 -20 5 0 11 104 92 120 92 18 0 11 -14
-22 -44 -20 -17 -23 -22 -8 -12 66 43 106 47 59 5 -13 -11 -17 -17 -9 -13 8 4
23 14 32 22 23 19 44 6 26 -16 -11 -15 -10 -15 14 1 34 21 52 22 44 2 -6 -17
9 -21 19 -5 3 6 16 10 28 10 20 -1 19 -4 -13 -31 -38 -34 -23 -29 26 8 31 23
54 30 54 16 -1 -5 -26 -26 -56 -48 -51 -37 -54 -42 -50 -74 7 -47 17 -54 80
-59 44 -4 58 -1 75 15 12 11 42 34 66 52 62 45 61 14 -1 -34 -26 -19 -43 -35
-37 -35 5 0 24 11 43 25 22 16 36 21 41 14 10 -17 19 17 19 72 0 57 -24 89
-67 89 -63 1 -235 20 -273 30 -53 14 -112 68 -141 128 -17 37 -23 70 -26 152
-3 58 0 125 6 150 5 24 9 46 7 47 -1 2 -27 -15 -56 -37 -55 -41 -70 -45 -50
-13 13 21 90 78 105 78 6 0 22 19 37 42 56 87 110 103 333 100 165 -2 171 -3
217 -29z m-602 -175 c0 -13 -14 -27 -55 -59 -57 -43 -65 -47 -65 -31 0 8 24
33 53 55 52 41 67 49 67 35z m-10 -58 c0 -12 -99 -95 -115 -95 -3 0 -5 6 -5
13 0 10 105 97 117 97 2 0 3 -7 3 -15z m470 -14 c0 -11 -105 -91 -120 -91 -21
0 -5 20 45 60 49 38 75 49 75 31z m-480 -35 c0 -14 -95 -96 -111 -96 -24 0 -3
29 49 67 66 49 62 47 62 29z m490 1 c0 -8 -21 -29 -47 -48 -68 -49 -73 -52
-73 -36 0 13 96 95 113 96 4 1 7 -5 7 -12z m-490 -51 c0 -12 -100 -96 -115
-96 -3 0 -5 6 -5 14 0 11 104 96 117 96 2 0 3 -6 3 -14z m0 -48 c-1 -13 -76
-73 -105 -84 -32 -13 -12 17 38 55 56 43 67 48 67 29z m10 -40 c-1 -13 -96
-84 -115 -87 -24 -3 -6 21 44 58 58 43 71 49 71 29z m0 -42 c0 -7 -27 -32 -60
-55 -42 -29 -60 -38 -60 -27 0 8 25 33 57 55 63 46 63 46 63 27z m17 -53 c7
-15 9 -29 5 -32 -54 -38 -101 -75 -98 -79 3 -2 26 12 52 32 54 42 64 44 82 15
15 -24 17 -21 -55 -73 -35 -24 -54 -33 -59 -25 -3 6 -2 14 3 18 51 34 102 75
99 79 -3 2 -30 -15 -60 -38 -31 -24 -58 -41 -59 -39 -24 42 -27 53 -20 58 52
35 102 75 99 79 -3 2 -26 -12 -52 -32 -48 -37 -64 -43 -64 -26 0 8 99 90 110
90 3 0 11 -12 17 -27z m433 -162 c-1 -9 -116 -91 -129 -91 -22 0 -10 17 34 49
25 18 45 35 45 38 0 6 -13 -3 -83 -54 -25 -18 -48 -28 -55 -24 -8 5 8 22 44
48 46 34 63 41 100 40 24 0 44 -3 44 -6z m34 -10 c8 -13 -102 -93 -122 -89
-12 2 1 17 43 50 63 50 71 53 79 39z m16 -34 c0 -8 -21 -29 -47 -48 -68 -49
-73 -52 -73 -36 0 13 96 95 113 96 4 1 7 -5 7 -12z m-595 -94 c-18 -16 -31
-21 -33 -14 -6 18 18 41 42 41 19 -1 19 -3 -9 -27z m85 23 c0 -3 -27 -26 -60
-51 -47 -36 -60 -42 -60 -28 1 21 76 82 103 82 9 1 17 -1 17 -3z m0 -40 c0
-12 -100 -96 -115 -96 -3 0 -5 6 -5 14 0 13 96 94 113 95 4 1 7 -5 7 -13z m0
-48 c0 -12 -100 -88 -114 -88 -21 0 2 31 47 62 57 41 67 44 67 26z m10 -37 c0
-6 -27 -30 -59 -55 -44 -34 -60 -42 -64 -32 -4 9 14 30 46 55 51 39 77 50 77
32z m10 -40 c0 -11 -105 -91 -120 -91 -21 0 -5 20 45 60 49 38 75 49 75 31z
m10 -34 c0 -7 -26 -32 -57 -55 -32 -23 -53 -42 -49 -42 5 0 33 18 62 40 58 44
64 46 64 27 0 -7 -26 -32 -57 -55 -53 -39 -59 -41 -70 -25 -21 28 -16 38 40
81 57 44 67 49 67 29z m44 -56 c3 -5 -18 -26 -47 -48 -69 -52 -75 -55 -81 -44
-6 9 99 99 116 101 4 0 9 -4 12 -9z m35 -28 c0 -5 -27 -27 -61 -51 -78 -56
-101 -42 -26 16 48 37 89 53 87 35z m41 -17 c0 -4 -128 -96 -134 -96 -3 0 -6
4 -6 10 0 16 112 99 126 93 8 -3 14 -6 14 -7z m40 -13 c-1 -11 -115 -93 -130
-93 -21 0 -6 18 49 60 51 37 81 50 81 33z m370 3 c0 -8 -111 -87 -136 -96 -40
-16 -26 4 41 54 50 38 95 58 95 42z m-320 -10 c0 -13 -123 -97 -137 -94 -13 2
-1 17 42 50 51 40 95 60 95 44z m55 -6 c-3 -5 -26 -24 -50 -41 -25 -18 -43
-34 -41 -37 3 -2 29 15 59 37 29 23 64 41 77 41 19 0 13 -8 -36 -44 -51 -38
-66 -44 -108 -44 -55 0 -55 1 24 62 41 32 89 49 75 26z m115 -5 c-26 -31 -110
-86 -127 -83 -12 2 1 17 46 51 62 46 108 65 81 32z m70 8 c-1 -15 -120 -94
-137 -91 -12 2 2 17 47 51 59 44 90 58 90 40z"/>
<path d="M1737 1162 c-37 -38 -37 -38 -37 -123 l0 -85 38 -36 c33 -33 43 -37
97 -40 l60 -3 0 -60 0 -60 -50 0 -50 0 -3 38 c-3 37 -4 37 -48 37 l-44 0 0
-53 c0 -47 4 -57 33 -85 31 -30 37 -32 108 -32 74 0 76 1 112 38 37 38 37 38
37 123 0 83 -1 86 -32 117 -29 27 -41 31 -98 34 l-65 3 0 65 0 65 50 0 50 0 3
-37 c3 -38 4 -38 48 -38 l44 0 0 48 c0 42 -4 52 -38 85 -36 36 -41 37 -108 37
-68 0 -71 -1 -107 -38z"/>
<path d="M2173 1160 l-33 -37 0 -200 0 -199 33 -32 c32 -31 36 -32 118 -32
l85 0 37 38 37 38 0 195 0 195 -38 37 c-38 37 -38 37 -122 36 l-85 -1 -32 -38z
m175 -62 c8 -8 12 -60 12 -168 0 -108 -4 -160 -12 -168 -7 -7 -33 -12 -58 -12
-25 0 -51 5 -58 12 -8 8 -12 60 -12 168 0 108 4 160 12 168 7 7 33 12 58 12
25 0 51 -5 58 -12z"/>
<path d="M2590 1155 l0 -45 50 0 50 0 0 -225 0 -225 45 0 45 0 0 225 0 225 50
0 50 0 0 45 0 45 -145 0 -145 0 0 -45z"/>
<path d="M3030 930 l0 -270 45 0 45 0 0 270 0 270 -45 0 -45 0 0 -270z"/>
<path d="M3260 930 l0 -270 120 0 120 0 0 45 0 45 -75 0 -75 0 0 225 0 225
-45 0 -45 0 0 -270z"/>
<path d="M3650 930 l0 -270 118 0 118 0 32 33 32 33 0 200 0 200 -38 37 -38
37 -112 0 -112 0 0 -270z m205 0 l0 -175 -57 -3 -58 -3 0 181 0 181 58 -3 57
-3 0 -175z"/>
<path d="M4100 930 l0 -270 45 0 45 0 0 270 0 270 -45 0 -45 0 0 -270z"/>
</g>
</svg>
