<?xml version="1.0" standalone="no"?>
<!DOCTYPE svg PUBLIC "-//W3C//DTD SVG 20010904//EN"
 "http://www.w3.org/TR/2001/REC-SVG-20010904/DTD/svg10.dtd">
<svg version="1.0" xmlns="http://www.w3.org/2000/svg"
 width="439.000000pt" height="191.000000pt" viewBox="0 0 439.000000 191.000000"
 preserveAspectRatio="xMidYMid meet">

<g transform="translate(0.000000,191.000000) scale(0.100000,-0.100000)"
fill="#000000" stroke="none">
<path d="M245 1831 l40 -7 -57 -5 c-31 -2 -54 0 -51 5 3 5 0 6 -8 4 -8 -3 -13
-13 -11 -22 4 -20 -15 -46 -32 -46 -6 0 -3 5 7 11 15 9 25 39 12 39 -11 0 -45
-41 -49 -58 -1 -9 -6 -24 -10 -32 -6 -15 -2 -1489 5 -1522 2 -10 7 -14 14 -9
5 5 19 5 30 0 17 -6 17 -8 3 -8 -10 -1 -18 -6 -18 -12 0 -5 -6 -7 -12 -3 -7 4
-4 -2 6 -14 20 -23 36 -28 36 -12 0 6 -8 10 -17 10 -15 0 -16 2 -3 10 18 11
23 7 25 -23 2 -16 8 -21 24 -20 11 2 21 -2 21 -7 0 -7 198 -10 560 -10 308 0
560 4 560 8 0 5 10 8 23 7 26 -2 67 14 67 27 0 5 -5 6 -12 2 -7 -4 -8 -3 -4 5
4 6 11 9 16 6 4 -3 14 3 21 12 12 13 14 155 17 795 1 544 -1 778 -9 778 -5 0
-7 4 -4 10 8 13 -25 62 -39 57 -6 -2 -16 3 -23 12 -10 14 -74 16 -590 17 -318
1 -560 -2 -538 -5z m1028 -8 c-7 -2 -21 -2 -30 0 -10 3 -4 5 12 5 17 0 24 -2
18 -5z m-1094 -87 c9 -11 6 -12 -14 -8 -14 2 -22 8 -19 13 8 13 20 11 33 -5z
m1242 2 c2 -7 2 -337 -1 -733 l-5 -720 -2 723 c-2 398 -5 727 -8 733 -4 5 -2
9 3 9 6 0 11 -6 13 -12z m16 -1095 c-1 -197 -2 -36 -2 357 0 393 1 554 2 358
2 -197 2 -519 0 -715z m-432 1048 c-9 -8 -36 -10 -30 -2 2 4 11 8 20 8 8 0 13
-3 10 -6z m42 -7 c-3 -3 -12 -4 -19 -1 -8 3 -5 6 6 6 11 1 17 -2 13 -5z m-422
-56 c-11 -6 -23 -16 -27 -22 -5 -8 -8 -7 -8 1 0 12 28 32 45 32 6 0 1 -5 -10
-11z m207 1 c-14 -13 -64 -20 -57 -9 5 8 -5 10 -32 6 -27 -5 -32 -4 -18 3 22
10 118 10 107 0z m75 5 c-3 -3 -12 -4 -19 -1 -8 3 -5 6 6 6 11 1 17 -2 13 -5z
m113 -9 c0 -9 10 -20 23 -25 19 -8 16 -9 -14 -7 -27 1 -35 6 -31 16 4 10 1 12
-9 6 -12 -8 -12 -6 0 8 17 21 31 22 31 2z m-370 -15 c-8 -6 -22 -10 -30 -9 -9
0 -5 6 10 14 27 14 44 10 20 -5z m220 10 c0 -5 -5 -10 -11 -10 -5 0 -7 5 -4
10 3 6 8 10 11 10 2 0 4 -4 4 -10z m190 0 c8 -5 11 -10 5 -10 -5 0 -17 5 -25
10 -8 5 -10 10 -5 10 6 0 17 -5 25 -10z m-396 -32 c-5 -7 -3 -8 6 -3 16 10
302 11 317 2 6 -4 27 -8 46 -9 19 -2 33 -5 31 -7 -2 -2 4 -10 14 -17 12 -8 22
-9 35 -2 10 5 21 7 25 4 3 -3 0 -6 -6 -6 -18 0 -14 -28 6 -39 9 -6 14 -11 9
-11 -4 0 -1 -13 7 -28 8 -15 17 -44 21 -65 4 -20 12 -34 17 -31 5 3 7 12 4 19
-3 8 1 18 8 24 10 9 13 5 12 -18 -1 -16 -4 -27 -8 -25 -10 7 -21 -43 -14 -62
3 -8 10 -12 16 -9 6 3 7 -1 4 -9 -3 -9 -10 -16 -15 -16 -17 0 -9 -28 14 -43
19 -13 20 -17 8 -29 -12 -11 -13 -10 -8 5 8 21 -1 22 -24 1 -10 -9 -15 -22
-13 -29 3 -7 1 -16 -4 -19 -5 -3 -9 2 -8 12 1 15 -10 17 -84 18 -47 1 -89 3
-95 4 -5 1 -14 2 -19 1 -5 -1 -6 5 -3 14 4 8 3 15 -1 15 -4 0 -6 21 -3 46 2
26 -2 51 -8 57 -13 13 -131 17 -131 5 0 -4 6 -8 13 -8 7 -1 5 -6 -5 -14 -10
-7 -18 -17 -18 -21 0 -5 12 3 28 16 28 26 59 32 55 11 -2 -8 4 -9 22 -2 14 5
25 8 26 7 1 -1 2 -17 3 -34 1 -24 -3 -35 -16 -39 -10 -3 -18 -10 -18 -17 0 -8
3 -8 12 1 17 17 24 15 25 -8 1 -13 -3 -18 -10 -14 -7 3 -1 -4 12 -15 13 -12
32 -21 43 -21 13 0 17 -4 12 -12 -6 -10 -4 -10 7 -2 23 18 56 23 56 8 0 -7 -4
-11 -9 -8 -4 3 -8 -4 -8 -14 0 -11 7 -22 15 -26 15 -5 22 9 8 17 -5 2 -3 3 3
1 6 -1 17 3 24 9 8 8 8 4 -1 -11 -12 -19 -12 -24 1 -32 8 -6 23 -8 33 -6 9 2
15 0 12 -5 -3 -4 7 -28 22 -51 16 -25 28 -62 31 -88 2 -25 7 -46 12 -48 8 -3
4 -118 -5 -159 -3 -13 -1 -23 5 -23 5 0 10 -7 10 -16 0 -8 -4 -12 -10 -9 -16
10 -12 -11 5 -25 8 -7 15 -18 14 -24 0 -7 -2 -6 -6 2 -8 21 -24 13 -36 -20 -6
-18 -10 -36 -9 -40 1 -4 -21 -30 -49 -58 -27 -27 -46 -50 -40 -50 5 0 11 5 13
11 2 6 12 0 23 -13 16 -18 16 -20 2 -9 -23 18 -33 8 -12 -13 9 -9 22 -13 28
-9 7 3 9 2 4 -2 -10 -11 -48 -14 -41 -3 3 4 1 8 -5 8 -5 0 -13 -4 -16 -10 -3
-5 -12 -10 -18 -9 -8 0 -7 3 2 6 11 5 11 7 0 15 -11 8 -10 9 3 5 23 -8 31 4
11 18 -18 14 -47 9 -37 -6 3 -5 -2 -6 -10 -3 -10 4 -16 1 -16 -8 0 -14 -29
-44 -42 -43 -3 0 -18 -10 -33 -23 -34 -30 -96 -64 -103 -58 -2 3 1 13 9 22 13
16 12 16 -9 5 -12 -7 -20 -16 -17 -21 3 -6 -1 -7 -10 -4 -11 5 -14 2 -9 -12 4
-14 0 -13 -16 6 -15 17 -20 19 -16 8 3 -10 1 -18 -4 -18 -6 0 -10 5 -10 10 0
6 -4 10 -10 10 -5 0 -9 -5 -7 -11 1 -6 -4 -14 -11 -16 -8 -3 -10 1 -5 14 6 16
5 16 -10 4 -13 -10 -15 -17 -6 -27 9 -11 8 -14 -5 -14 -24 0 -19 29 10 53 69
58 83 74 28 33 -34 -25 -65 -42 -69 -38 -5 4 -5 1 -1 -5 4 -7 2 -13 -3 -13 -6
0 -11 -7 -11 -16 0 -8 4 -13 8 -10 5 3 9 -1 9 -8 0 -8 -6 -12 -14 -9 -7 3 -13
13 -13 22 0 14 -2 14 -10 1 -8 -13 -10 -12 -10 3 0 9 7 17 15 17 18 0 20 16 3
26 -7 5 -8 3 -3 -6 6 -10 3 -12 -13 -8 -13 4 -23 0 -26 -8 -6 -16 -54 -18 -76
-4 -11 7 -3 9 27 6 33 -3 42 0 46 14 3 10 24 32 47 49 24 17 39 31 34 31 -5 0
-35 -20 -67 -45 -57 -45 -96 -53 -60 -13 18 20 18 21 -4 9 -12 -6 -25 -16 -28
-21 -7 -11 -25 -4 -25 9 0 4 25 25 55 47 30 21 53 45 50 52 -2 6 0 12 5 12 6
0 10 -4 10 -8 0 -5 6 -9 13 -10 35 -3 53 -8 58 -16 4 -5 13 -5 20 0 8 4 22 9
31 9 17 2 17 1 1 -17 -16 -18 -16 -18 13 -3 35 18 51 19 56 3 3 -8 9 -6 19 4
10 11 20 13 36 7 13 -5 25 -4 28 2 4 5 11 7 16 4 5 -4 9 -2 9 3 0 5 -55 9
-122 8 -68 -1 -129 3 -135 8 -7 4 -13 5 -13 2 0 -4 -9 -2 -21 4 -33 18 -69 22
-70 8 0 -18 -116 -101 -129 -93 -6 4 -8 11 -4 16 3 6 -2 9 -12 7 -11 -2 -18 2
-17 9 2 7 -3 10 -10 7 -24 -9 -16 33 9 46 13 8 24 17 24 22 0 5 -16 -3 -35
-18 -24 -18 -33 -22 -29 -10 4 10 -2 23 -17 34 -17 15 -19 21 -9 27 9 6 11 4
5 -5 -4 -7 6 -2 24 11 37 27 42 38 6 15 -23 -15 -25 -15 -36 5 -7 13 -7 19 -1
15 6 -3 13 -2 16 3 3 5 -1 12 -10 15 -12 5 -13 10 -6 19 7 8 7 18 2 27 -6 10
0 21 23 37 17 13 26 23 20 23 -6 0 -16 -7 -23 -15 -7 -8 -16 -13 -20 -10 -5 3
-15 -2 -24 -10 -9 -9 -17 -11 -21 -5 -3 5 -1 10 5 10 7 0 5 9 -4 22 -21 29
-20 35 4 43 12 4 17 11 13 18 -4 7 1 6 10 -2 9 -7 17 -9 17 -5 0 5 9 15 20 22
26 16 46 6 29 -14 -8 -10 -8 -14 0 -14 6 0 11 4 11 8 0 13 45 31 58 23 6 -4
-3 -16 -24 -30 -19 -13 -34 -28 -34 -33 0 -5 7 -2 16 6 8 9 24 20 34 26 15 8
18 5 17 -15 0 -13 -2 -24 -6 -23 -13 2 -41 -15 -41 -25 0 -5 9 -2 20 8 11 10
20 16 21 14 0 -2 2 -12 4 -21 2 -10 -2 -18 -8 -18 -7 0 -5 -5 3 -10 24 -15 32
-12 25 11 -4 11 -7 43 -7 70 1 35 -4 52 -14 56 -8 3 -14 9 -14 15 0 5 4 7 9 4
5 -3 11 8 13 24 4 26 2 29 -15 24 -17 -5 -19 -3 -14 17 l6 24 -19 -23 c-11
-13 -21 -18 -25 -12 -3 5 -2 10 4 10 6 0 8 6 6 13 -3 6 8 21 24 32 17 11 28
21 26 23 -2 2 -18 -6 -36 -19 -37 -26 -66 -32 -66 -13 0 7 4 11 9 8 4 -3 8 2
8 11 0 9 -3 14 -8 11 -15 -9 -9 59 7 71 9 7 11 13 6 13 -6 0 -16 -5 -23 -12
-6 -6 -15 -9 -18 -5 -4 4 11 23 32 43 37 35 37 36 5 14 -26 -18 -35 -20 -41
-10 -6 10 6 24 38 47 26 18 44 33 40 33 -4 0 -28 -14 -53 -32 -30 -22 -44 -37
-40 -47 3 -9 3 -12 -1 -8 -4 4 -16 -1 -26 -10 -18 -16 -18 -16 -12 0 3 9 10
17 15 17 5 0 9 5 9 11 0 5 -4 8 -9 5 -5 -3 -11 5 -13 18 -4 17 -1 23 8 19 7
-3 13 -8 12 -11 -2 -22 4 -22 22 -2 12 13 18 30 15 37 -3 7 -8 20 -12 30 -4
10 -3 14 5 9 6 -3 14 -1 18 5 4 8 3 9 -4 5 -7 -4 -12 -5 -12 -2 0 2 -3 11 -6
20 -4 11 -1 16 11 16 16 0 16 2 0 26 -15 24 -15 27 0 44 9 10 14 24 10 29 -3
6 0 11 7 11 8 0 23 7 34 16 19 15 18 15 -3 9 -18 -5 -20 -2 -16 14 3 12 10 18
17 14 8 -4 8 -3 0 6 -15 16 4 58 29 65 10 2 15 10 11 19 -3 8 -1 18 5 22 6 3
11 1 11 -4 0 -6 6 -10 13 -8 6 1 12 -5 12 -13 0 -8 -7 -15 -17 -15 -21 0 -59
-35 -51 -48 3 -5 10 -3 15 7 5 9 14 16 20 16 7 0 25 12 41 27 23 23 27 24 21
8 -3 -11 8 2 25 28 32 50 37 62 22 52 -5 -3 -13 0 -17 6 -4 8 -3 9 4 5 7 -4
12 -1 13 6 0 10 2 10 6 1 2 -7 9 -13 14 -13 6 0 8 4 5 8 -2 4 4 9 15 9 11 1
35 11 52 22 37 24 41 25 31 9z m-164 -38 c0 -5 -2 -10 -4 -10 -3 0 -8 5 -11
10 -3 6 -1 10 4 10 6 0 11 -4 11 -10z m23 -45 c-3 -9 -8 -14 -10 -11 -3 3 -2
9 2 15 9 16 15 13 8 -4z m707 -34 c0 -5 -8 -15 -17 -22 -16 -12 -17 -12 -6 2
7 9 10 19 6 22 -3 4 -1 7 5 7 7 0 12 -4 12 -9z m-820 -5 c0 -3 -4 -8 -10 -11
-5 -3 -10 -1 -10 4 0 6 5 11 10 11 6 0 10 -2 10 -4z m-37 -42 c-8 -22 -18 -17
-18 10 0 18 3 22 12 14 6 -5 9 -16 6 -24z m-73 -112 c0 -5 -7 -17 -15 -28 -14
-18 -14 -17 -4 9 12 27 19 34 19 19z m30 -6 c0 -3 -4 -8 -10 -11 -5 -3 -10 -1
-10 4 0 6 5 11 10 11 6 0 10 -2 10 -4z m-33 -72 c-3 -3 -12 -4 -19 -1 -8 3 -5
6 6 6 11 1 17 -2 13 -5z m17 -40 c3 -8 2 -12 -4 -9 -6 3 -10 10 -10 16 0 14 7
11 14 -7z m886 6 c0 -5 -5 -10 -11 -10 -5 0 -7 5 -4 10 3 6 8 10 11 10 2 0 4
-4 4 -10z m10 -24 c0 -3 -4 -8 -10 -11 -5 -3 -10 -1 -10 4 0 6 5 11 10 11 6 0
10 -2 10 -4z m-903 -13 c-4 -3 0 -15 9 -24 15 -17 15 -19 1 -25 -9 -3 -24 -1
-34 5 -15 9 -12 10 12 4 28 -6 29 -5 12 11 -9 9 -23 14 -29 11 -7 -4 -4 1 6 9
20 16 36 22 23 9z m823 -31 c0 -5 -7 -9 -15 -9 -8 0 -12 4 -9 9 3 4 9 8 15 8
5 0 9 -4 9 -8z m66 -47 c4 -8 10 -12 15 -9 5 3 5 -5 0 -17 -4 -13 -14 -25 -22
-27 -11 -3 -11 -2 -1 6 13 9 6 42 -9 42 -5 0 -9 5 -9 10 0 16 20 12 26 -5z
m-890 -74 c-4 -5 -1 -12 4 -14 6 -3 5 -4 -2 -3 -15 3 -23 26 -8 26 6 0 9 -4 6
-9z m920 -52 c-1 -16 -5 -32 -9 -35 -3 -3 -4 10 -1 31 3 26 1 34 -7 29 -8 -4
-9 -3 -5 5 12 19 26 2 22 -30z m-862 -88 c-2 -2 8 -13 23 -23 21 -13 24 -18
11 -18 -10 0 -18 5 -18 10 0 6 -4 10 -10 10 -5 0 -10 -9 -10 -20 0 -11 -4 -20
-10 -20 -6 0 -6 9 0 25 7 20 6 25 -5 25 -8 0 -15 4 -15 9 0 6 9 9 20 8 10 -1
17 -3 14 -6z m61 -81 c-3 -5 -11 -10 -16 -10 -6 0 -7 5 -4 10 3 6 11 10 16 10
6 0 7 -4 4 -10z m-135 -40 c0 -5 -5 -10 -11 -10 -5 0 -7 5 -4 10 3 6 8 10 11
10 2 0 4 -4 4 -10z m20 -115 c0 4 5 3 11 -1 8 -4 7 -9 -2 -15 -8 -4 -14 -12
-14 -17 0 -5 -7 -16 -16 -25 -16 -15 -17 -13 -15 27 1 39 3 43 18 35 10 -5 18
-7 18 -4z m909 -17 c6 -18 7 -28 2 -23 -10 12 -25 55 -18 55 3 0 10 -15 16
-32z m-14 -47 c-3 -6 -10 -9 -14 -6 -5 2 -16 -4 -26 -15 -18 -20 -8 -29 11
-10 7 7 11 6 11 -4 0 -9 -9 -13 -24 -11 -17 2 -23 -2 -19 -11 3 -8 0 -11 -10
-7 -15 6 -14 8 44 71 7 7 9 19 6 25 -4 7 1 5 11 -5 9 -9 14 -21 10 -27z m-886
-15 c9 -10 8 -15 -3 -19 -11 -4 -13 -1 -9 10 5 12 3 14 -7 8 -9 -5 -11 -4 -6
3 9 15 11 15 25 -2z m895 -22 c3 -8 2 -12 -4 -9 -6 3 -10 10 -10 16 0 14 7 11
14 -7z m-638 -88 c-76 -64 -103 -80 -133 -82 -20 0 -30 3 -26 9 4 7 -1 8 -12
3 -15 -5 -16 -4 -5 8 11 14 14 14 27 0 13 -13 18 -12 42 12 14 15 43 38 64 52
20 13 37 29 37 35 0 5 7 4 16 -3 13 -12 12 -16 -10 -34z m624 36 c0 -13 -12
-22 -22 -16 -10 6 -1 24 13 24 5 0 9 -4 9 -8z m-830 -72 c0 -5 7 -6 17 -3 11
4 14 3 9 -5 -4 -7 -15 -12 -24 -12 -15 0 -15 -2 -2 -11 12 -8 12 -10 1 -7 -15
4 -24 48 -9 48 4 0 8 -4 8 -10z m610 -10 c-11 -7 -11 -10 -2 -10 7 0 10 -4 7
-10 -15 -24 -26 -5 -16 28 1 1 7 2 14 2 8 0 7 -4 -3 -10z m47 -65 c0 -20 -4
-19 -17 5 -8 15 -8 18 3 14 8 -3 14 -11 14 -19z m-117 -5 c0 -5 -9 -10 -20
-10 -11 0 -20 -5 -20 -12 0 -6 -3 -8 -7 -4 -5 4 1 14 11 22 23 16 36 18 36 4z
m-390 -22 c0 -4 -7 -8 -15 -8 -8 0 -15 4 -15 8 0 5 7 9 15 9 8 0 15 -4 15 -9z
m274 6 c9 -3 13 -11 9 -17 -4 -6 0 -8 9 -5 8 4 21 2 29 -3 10 -6 8 -9 -10 -9
-14 0 -33 8 -44 18 -15 12 -21 14 -24 4 -3 -6 -9 -10 -14 -6 -5 3 -9 0 -9 -7
0 -7 -3 -9 -6 -6 -9 9 15 37 31 37 8 0 20 -3 29 -6z m106 -24 c0 -5 -4 -10
-10 -10 -5 0 -10 5 -10 10 0 6 5 10 10 10 6 0 10 -4 10 -10z m-183 -6 c-3 -3
-12 -4 -19 -1 -8 3 -5 6 6 6 11 1 17 -2 13 -5z m-533 -154 c-6 -6 -10 -3 -10
10 0 13 4 16 10 10 7 -7 7 -13 0 -20z"/>
<path d="M436 1458 c3 -4 9 -8 15 -8 5 0 9 4 9 8 0 5 -7 9 -15 9 -8 0 -12 -4
-9 -9z"/>
<path d="M435 1383 c-17 -14 -24 -22 -17 -18 6 3 24 12 38 20 14 7 22 15 17
18 -4 3 -22 -6 -38 -20z"/>
<path d="M460 1349 c0 -5 -4 -8 -9 -4 -5 3 -13 0 -17 -7 -4 -7 -4 -10 1 -6 4
4 15 2 24 -4 9 -7 13 -8 9 -4 -4 5 -3 15 3 23 9 9 8 13 0 13 -6 0 -11 -5 -11
-11z"/>
<path d="M763 1323 c-11 -22 -10 -22 18 -7 33 17 38 30 11 30 -10 0 -23 -10
-29 -23z"/>
<path d="M725 1330 c-13 -6 -15 -9 -5 -9 8 0 22 4 30 9 18 12 2 12 -25 0z"/>
<path d="M389 1303 c-13 -17 -13 -17 6 -3 11 8 22 16 24 17 2 2 0 3 -6 3 -6 0
-17 -8 -24 -17z"/>
<path d="M438 1288 c-13 -13 -16 -17 -7 -10 15 12 18 10 27 -15 9 -27 9 -27 9
10 -1 20 -2 37 -3 37 -2 0 -13 -10 -26 -22z"/>
<path d="M859 1293 c-13 -16 -12 -17 4 -4 9 7 17 15 17 17 0 8 -8 3 -21 -13z"/>
<path d="M715 1279 c-11 -16 -1 -19 13 -3 7 8 8 14 3 14 -5 0 -13 -5 -16 -11z"/>
<path d="M335 1269 c-9 -14 -2 -20 14 -10 8 6 9 11 3 15 -6 3 -14 1 -17 -5z"/>
<path d="M865 1255 c-16 -14 -25 -25 -20 -25 6 1 24 12 40 25 17 14 26 25 20
25 -5 -1 -23 -12 -40 -25z"/>
<path d="M369 1243 c-13 -17 -13 -17 6 -3 11 8 22 16 24 17 2 2 0 3 -6 3 -6 0
-17 -8 -24 -17z"/>
<path d="M721 1235 c-23 -25 -23 -26 -6 -45 13 -14 22 -17 31 -10 8 8 14 7 18
-2 3 -7 4 -3 2 10 -2 12 0 20 5 16 5 -3 9 -11 9 -19 0 -8 4 -17 10 -20 11 -7
65 19 76 36 3 6 -5 4 -18 -5 -27 -18 -44 -11 -26 11 9 11 7 12 -7 7 -15 -6
-17 -3 -12 15 3 15 1 21 -6 18 -12 -5 -13 -8 -2 -42 4 -15 3 -14 -6 3 -13 24
-44 26 -44 3 0 -8 -6 -16 -13 -19 -16 -5 3 49 21 60 7 4 8 8 2 8 -5 0 -21 -12
-34 -25z"/>
<path d="M394 1214 c-26 -24 -28 -28 -8 -12 17 12 40 28 50 35 11 6 14 12 8
12 -6 1 -28 -15 -50 -35z"/>
<path d="M447 1209 c-3 -12 -1 -19 5 -17 13 5 20 38 8 38 -4 0 -10 -9 -13 -21z"/>
<path d="M387 1165 c-20 -14 -37 -28 -37 -31 0 -2 18 8 40 22 35 23 47 34 37
34 -1 0 -19 -11 -40 -25z"/>
<path d="M882 1175 c-7 -8 -9 -15 -4 -15 5 0 15 7 22 15 16 19 -1 19 -18 0z"/>
<path d="M443 1165 c-19 -21 -16 -27 7 -15 11 6 20 15 20 20 0 14 -13 12 -27
-5z"/>
<path d="M930 1165 c-7 -8 -8 -15 -2 -15 5 0 15 7 22 15 7 8 8 15 2 15 -5 0
-15 -7 -22 -15z"/>
<path d="M465 1083 c1 -10 9 -17 16 -15 8 1 -2 -11 -21 -28 -19 -16 -38 -30
-42 -30 -5 0 -8 -5 -8 -11 0 -5 15 2 34 16 22 17 37 22 41 15 3 -6 11 -7 17
-4 7 4 8 2 4 -4 -4 -7 -13 -12 -21 -12 -8 0 -17 -5 -20 -10 -4 -7 3 -8 21 -4
21 5 25 4 19 -6 -5 -7 -4 -11 1 -8 12 7 35 -17 26 -27 -4 -4 3 -2 16 4 21 11
22 10 18 -14 -3 -18 -1 -23 7 -18 37 23 50 3 15 -21 -12 -9 -18 -16 -13 -16 5
0 19 9 31 21 l22 21 7 -21 c6 -18 8 -19 21 -6 18 18 45 9 37 -12 -4 -11 -2
-14 5 -9 7 4 12 16 12 28 0 18 -4 20 -30 14 -21 -4 -29 -2 -24 5 3 6 0 9 -7 8
-8 -2 -24 2 -36 9 -13 7 -23 10 -23 7 0 -3 -11 7 -25 22 -13 15 -25 22 -25 15
0 -7 -5 -10 -10 -7 -6 4 -10 12 -9 18 3 25 -26 77 -40 72 -11 -4 -12 -3 -1 10
10 12 10 15 -3 15 -9 0 -14 -7 -12 -17z"/>
<path d="M413 1044 l-28 -25 33 22 c17 13 32 24 32 26 0 8 -11 1 -37 -23z"/>
<path d="M405 954 c-16 -14 -21 -21 -10 -16 30 16 61 41 50 41 -5 0 -23 -11
-40 -25z"/>
<path d="M465 910 c-3 -6 1 -7 9 -4 18 7 21 14 7 14 -6 0 -13 -4 -16 -10z"/>
<path d="M720 907 c0 -5 7 -6 16 -3 12 4 15 2 10 -9 -3 -8 -1 -15 3 -15 5 0
11 5 13 10 5 17 68 21 84 5 13 -12 12 -16 -7 -25 -11 -7 -18 -14 -15 -17 3 -3
19 6 36 21 17 14 35 26 40 26 17 0 21 -20 6 -26 -9 -3 -16 -11 -16 -17 0 -5 8
-3 19 7 10 9 25 14 34 11 23 -9 28 9 6 23 -14 9 -19 9 -19 1 0 -8 -4 -8 -13
-1 -7 6 -25 9 -40 8 -15 -2 -30 1 -33 6 -7 11 -124 6 -124 -5z"/>
<path d="M509 893 c-13 -16 -12 -17 4 -4 9 7 17 15 17 17 0 8 -8 3 -21 -13z"/>
<path d="M810 889 c0 -5 5 -7 10 -4 6 3 10 8 10 11 0 2 -4 4 -10 4 -5 0 -10
-5 -10 -11z"/>
<path d="M774 864 c-18 -14 -18 -15 4 -4 12 6 22 13 22 15 0 8 -5 6 -26 -11z"/>
<path d="M699 853 c-13 -16 -12 -17 4 -4 9 7 17 15 17 17 0 8 -8 3 -21 -13z"/>
<path d="M970 859 c0 -5 -4 -8 -9 -5 -5 4 -5 -10 0 -32 5 -20 9 -40 9 -43 0
-3 -16 -13 -35 -22 -19 -9 -35 -22 -35 -29 0 -9 3 -10 8 -2 4 6 21 18 39 27
28 15 31 21 31 67 1 27 -1 50 -4 50 -2 0 -4 -5 -4 -11z"/>
<path d="M725 828 l-20 -21 23 12 c12 6 22 16 22 21 0 13 -2 12 -25 -12z"/>
<path d="M915 840 c-3 -5 -2 -10 4 -10 5 0 13 5 16 10 3 6 2 10 -4 10 -5 0
-13 -4 -16 -10z"/>
<path d="M839 823 c-13 -16 -12 -17 4 -4 9 7 17 15 17 17 0 8 -8 3 -21 -13z"/>
<path d="M751 801 c-17 -17 -21 -18 -40 -4 -19 13 -21 13 -18 -6 2 -11 6 -23
9 -27 4 -3 4 -13 0 -22 -5 -15 -3 -15 11 -4 9 8 22 11 29 7 7 -4 2 3 -12 15
-14 12 -19 19 -12 15 14 -7 57 4 48 12 -3 4 -1 12 5 20 17 20 2 16 -20 -6z"/>
<path d="M865 798 c-29 -23 -71 -36 -61 -19 7 10 -9 8 -37 -4 -12 -5 -16 -14
-11 -27 5 -17 3 -19 -15 -13 -22 7 -30 -10 -8 -17 23 -8 112 -10 104 -2 -4 4
11 18 34 32 22 13 38 26 35 29 -3 3 -17 -5 -33 -17 -41 -32 -44 -3 -2 32 39
33 34 38 -6 6z m-77 -43 c1 -14 -2 -25 -6 -25 -7 0 -8 31 -3 48 3 8 7 -2 9
-23z"/>
<path d="M930 805 c-11 -13 -10 -14 4 -9 9 3 16 10 16 15 0 13 -6 11 -20 -6z"/>
<path d="M306 718 c5 -7 1 -9 -9 -5 -11 4 -14 2 -11 -8 7 -16 22 -14 52 6 l22
16 -30 1 c-20 0 -28 -3 -24 -10z"/>
<path d="M359 643 c-13 -17 -13 -17 6 -3 11 8 22 16 24 17 2 2 0 3 -6 3 -6 0
-17 -8 -24 -17z"/>
<path d="M441 611 c-9 -9 -12 -13 -7 -8 6 4 21 7 35 7 25 0 24 -1 -12 -27 -20
-14 -35 -28 -33 -31 3 -2 18 5 35 17 25 18 29 19 27 5 -1 -9 -10 -22 -19 -29
-9 -7 -17 -16 -17 -20 0 -5 8 -1 19 9 10 9 25 14 35 10 15 -6 15 -7 -1 -21
-16 -13 -16 -13 5 -3 12 6 22 14 22 19 0 5 -10 21 -22 37 -13 16 -22 30 -20
31 1 2 2 7 2 11 0 14 -31 10 -49 -7z"/>
<path d="M385 528 l-20 -21 23 12 c12 6 22 16 22 21 0 13 -2 12 -25 -12z"/>
<path d="M539 527 c-12 -34 0 -48 20 -23 9 10 8 15 -4 20 -8 3 -15 4 -16 3z"/>
<path d="M425 470 c-3 -5 -1 -10 4 -10 6 0 11 5 11 10 0 6 -2 10 -4 10 -3 0
-8 -4 -11 -10z"/>
<path d="M968 473 c-10 -2 -18 -10 -18 -16 0 -7 -5 -6 -11 3 -9 13 -10 12 -5
-2 3 -11 -3 -23 -17 -33 -44 -31 -7 -14 43 20 49 33 50 39 8 28z"/>
<path d="M460 450 c-8 -5 -12 -12 -9 -15 4 -3 12 1 19 10 14 17 11 19 -10 5z"/>
<path d="M601 419 c-13 -11 -22 -22 -19 -24 2 -3 15 6 28 20 28 30 24 32 -9 4z"/>
<path d="M857 433 c-4 -3 -7 -11 -7 -17 0 -6 5 -5 12 2 6 6 9 14 7 17 -3 3 -9
2 -12 -2z"/>
<path d="M700 400 c-8 -5 -12 -12 -9 -15 4 -3 12 1 19 10 14 17 11 19 -10 5z"/>
<path d="M810 390 c-9 -6 -10 -10 -3 -10 6 0 15 5 18 10 8 12 4 12 -15 0z"/>
<path d="M287 623 c-10 -9 -9 -33 1 -33 4 0 8 9 9 20 2 21 0 24 -10 13z"/>
<path d="M1948 1353 c7 -3 16 -2 19 1 4 3 -2 6 -13 5 -11 0 -14 -3 -6 -6z"/>
<path d="M2178 1353 c6 -2 18 -2 25 0 6 3 1 5 -13 5 -14 0 -19 -2 -12 -5z"/>
<path d="M2248 1353 c7 -3 16 -2 19 1 4 3 -2 6 -13 5 -11 0 -14 -3 -6 -6z"/>
<path d="M2433 1353 c9 -2 23 -2 30 0 6 3 -1 5 -18 5 -16 0 -22 -2 -12 -5z"/>
<path d="M2538 1353 c6 -2 18 -2 25 0 6 3 1 5 -13 5 -14 0 -19 -2 -12 -5z"/>
<path d="M2723 1353 c9 -2 25 -2 35 0 9 3 1 5 -18 5 -19 0 -27 -2 -17 -5z"/>
<path d="M2828 1353 c7 -3 16 -2 19 1 4 3 -2 6 -13 5 -11 0 -14 -3 -6 -6z"/>
<path d="M2988 1353 c7 -3 16 -2 19 1 4 3 -2 6 -13 5 -11 0 -14 -3 -6 -6z"/>
<path d="M3247 1353 c18 -2 50 -2 70 0 21 2 7 4 -32 4 -38 0 -55 -2 -38 -4z"/>
<path d="M3398 1353 c12 -2 32 -2 45 0 12 2 2 4 -23 4 -25 0 -35 -2 -22 -4z"/>
<path d="M3528 1353 c7 -3 16 -2 19 1 4 3 -2 6 -13 5 -11 0 -14 -3 -6 -6z"/>
<path d="M3588 1353 c7 -3 16 -2 19 1 4 3 -2 6 -13 5 -11 0 -14 -3 -6 -6z"/>
<path d="M3648 1353 c6 -2 18 -2 25 0 6 3 1 5 -13 5 -14 0 -19 -2 -12 -5z"/>
<path d="M3968 1353 c12 -2 30 -2 40 0 9 3 -1 5 -23 4 -22 0 -30 -2 -17 -4z"/>
<path d="M4068 1353 c7 -3 16 -2 19 1 4 3 -2 6 -13 5 -11 0 -14 -3 -6 -6z"/>
<path d="M1770 1218 c-5 -13 -9 -19 -9 -14 -1 5 -12 -1 -26 -14 -23 -22 -25
-31 -25 -110 0 -78 2 -89 23 -108 13 -12 27 -19 30 -15 4 3 7 -1 7 -11 0 -23
27 -31 47 -15 12 10 15 10 9 2 -5 -10 4 -13 38 -13 24 0 52 -3 61 -6 10 -4 15
-2 13 6 -2 6 7 19 20 27 29 20 27 -2 -3 -30 -14 -13 -16 -20 -7 -23 18 -8 15
-49 -5 -65 -14 -12 -15 -12 -9 0 5 8 3 17 -5 22 -11 7 -10 9 4 9 15 0 15 3 5
20 -14 23 -26 26 -25 8 2 -59 -5 -89 -20 -94 -10 -3 -26 -10 -37 -15 -13 -7
-16 -7 -11 0 3 6 2 11 -4 11 -5 0 -11 -5 -13 -12 -2 -6 -11 -12 -19 -13 -12
-2 -15 8 -15 49 l1 51 -42 1 -43 1 0 -52 c0 -46 4 -55 33 -81 24 -22 43 -30
78 -33 28 -1 50 2 54 9 6 9 10 9 16 -1 7 -11 11 -10 24 6 15 20 15 20 9 0 -6
-20 -5 -20 10 -1 21 26 20 37 -1 29 -15 -5 -15 -3 1 9 18 14 18 16 2 25 -16 9
-16 11 -1 23 13 11 15 10 10 -3 -4 -8 -1 -18 4 -22 6 -3 9 -10 6 -15 -3 -5 0
-12 6 -16 8 -4 9 -3 5 4 -4 7 -1 12 7 12 16 0 27 21 27 48 0 15 -2 15 -10 2
-7 -12 -9 -10 -7 7 0 12 5 19 10 16 6 -3 8 19 5 56 -3 50 -9 66 -33 91 -30 31
-69 40 -78 18 -4 -10 -8 -10 -15 0 -6 8 -23 12 -43 10 l-33 -3 0 74 0 73 67 2
c37 1 67 -2 67 -7 0 -5 -8 -6 -17 -3 -15 5 -14 3 2 -9 12 -10 21 -12 23 -5 2
5 8 10 14 10 14 0 5 -43 -10 -46 -7 -1 -8 0 -2 3 17 8 11 19 -10 20 -23 2 -24
-1 -11 -26 7 -11 21 -17 43 -17 32 1 33 3 36 44 3 38 -1 47 -36 82 -39 40 -72
52 -72 27 0 -7 6 -19 13 -26 10 -11 9 -13 -3 -9 -8 3 -16 14 -18 26 -3 19 -10
22 -53 22 -42 0 -51 -3 -59 -22z m177 -34 c8 -17 8 -26 1 -31 -7 -3 -8 -1 -4
5 4 7 1 12 -9 12 -9 0 -13 5 -10 11 4 5 -1 20 -12 31 -18 20 -18 21 2 8 11 -6
26 -23 32 -36z m-182 6 c4 -6 1 -9 -7 -8 -7 2 -12 -3 -10 -9 1 -7 -5 -13 -15
-13 -14 0 -14 2 2 20 21 23 22 23 30 10z m65 1 c0 -6 -4 -13 -10 -16 -5 -3
-10 1 -10 9 0 9 5 16 10 16 6 0 10 -4 10 -9z m141 -8 c13 -16 12 -17 -3 -4
-17 13 -22 21 -14 21 2 0 10 -8 17 -17z m-186 -13 c-3 -5 -12 -10 -18 -10 -7
0 -6 4 3 10 19 12 23 12 15 0z m-5 -40 c0 -5 -7 -10 -15 -10 -8 0 -15 5 -15
10 0 6 7 10 15 10 8 0 15 -4 15 -10z m204 -5 c-4 -8 -8 -15 -10 -15 -2 0 -4 7
-4 15 0 8 4 15 10 15 5 0 7 -7 4 -15z m-204 -95 c0 -5 -7 -10 -15 -10 -8 0
-15 5 -15 10 0 6 7 10 15 10 8 0 15 -4 15 -10z m-32 -42 c-2 -7 3 -12 10 -10
14 2 16 -4 3 -12 -4 -3 -16 3 -26 14 -16 18 -16 20 -2 20 10 0 16 -6 15 -12z
m37 2 c3 -6 -1 -7 -9 -4 -18 7 -21 14 -7 14 6 0 13 -4 16 -10z m45 -21 c0 -5
-4 -9 -10 -9 -5 0 -10 7 -10 16 0 8 5 12 10 9 6 -3 10 -10 10 -16z m150 -189
c0 -5 -4 -10 -10 -10 -5 0 -10 5 -10 10 0 6 5 10 10 10 6 0 10 -4 10 -10z
m-89 -17 c12 -16 12 -17 -2 -6 -9 7 -20 9 -24 5 -5 -4 -5 -1 -1 6 9 16 11 15
27 -5z m34 -1 c-3 -3 -11 0 -18 7 -9 10 -8 11 6 5 10 -3 15 -9 12 -12z"/>
<path d="M2183 1201 l-29 -36 -2 -182 c-1 -129 1 -183 9 -183 8 0 7 -6 -2 -16
-12 -15 -9 -21 25 -50 37 -32 40 -33 124 -31 77 2 87 4 85 20 0 12 4 16 13 13
7 -3 22 7 32 22 17 24 19 49 21 216 l3 188 -40 38 -39 38 -85 0 c-85 -1 -85
-1 -115 -37z m47 26 c0 -2 -10 -12 -22 -23 l-23 -19 19 23 c18 21 26 27 26 19z
m22 -15 c-29 -19 -28 -36 1 -22 19 9 20 9 6 -2 -8 -7 -18 -21 -22 -30 -9 -24
-34 -23 -48 3 -6 13 -7 19 -1 15 6 -3 21 7 34 22 13 16 29 29 37 29 9 0 7 -6
-7 -15z m138 3 c0 4 7 2 15 -5 16 -13 10 -35 -6 -24 -5 3 -7 10 -4 15 4 5 4 9
1 9 -14 0 -14 -20 0 -35 12 -12 19 -13 24 -5 5 9 9 9 14 1 4 -6 3 -11 -3 -11
-6 0 -7 -8 -4 -17 5 -11 -1 -9 -16 6 -18 18 -25 21 -32 10 -4 -7 -11 -10 -15
-6 -11 10 -14 38 -4 32 4 -3 10 2 14 10 3 8 1 17 -4 20 -6 4 -10 1 -10 -6 0
-7 -3 -10 -6 -6 -3 3 -3 11 1 17 5 8 11 8 21 -1 8 -6 14 -8 14 -4z m-205 -71
c9 -15 12 -24 7 -20 -6 3 -12 -2 -14 -11 -3 -10 -6 -1 -9 20 -3 20 -4 37 -3
37 1 0 9 -12 19 -26z m190 -20 c8 -11 14 -26 15 -34 0 -13 -1 -13 -10 0 -7 10
-10 -30 -10 -121 0 -109 3 -139 15 -149 8 -7 14 -22 14 -34 -2 -20 -2 -20 -6
2 -5 24 -13 28 -28 13 -15 -14 -113 -17 -127 -3 -7 7 -10 63 -10 167 1 104 -2
154 -9 149 -6 -3 -8 -12 -6 -18 3 -7 -1 -13 -8 -13 -25 0 5 42 42 58 44 19
107 10 128 -17z m35 -7 c0 -5 -4 -5 -10 -2 -5 3 -10 14 -10 23 0 15 2 15 10 2
5 -8 10 -19 10 -23z m17 -99 l0 -103 -6 90 c-6 78 -5 115 3 115 2 0 3 -46 3
-102z m-248 -79 c0 -73 -4 -127 -8 -121 -7 11 -3 252 5 252 3 0 4 -59 3 -131z
m28 24 c-2 -21 -4 -4 -4 37 0 41 2 58 4 38 2 -21 2 -55 0 -75z m3 -79 c0 -8
-5 -12 -10 -9 -6 4 -8 11 -5 16 9 14 15 11 15 -7z m232 -55 c7 -4 6 -9 -1 -13
-6 -4 -11 -1 -11 6 0 10 -3 9 -11 -2 -9 -12 -10 -12 -5 3 3 10 7 28 7 40 2 19
2 19 6 -3 3 -14 10 -28 15 -31z m-192 -69 c0 -6 4 -8 10 -5 5 3 7 0 5 -7 -8
-20 -43 -39 -50 -28 -3 6 1 10 9 10 8 0 18 5 22 12 5 8 2 9 -10 5 -9 -4 -14
-3 -11 2 3 5 1 12 -4 15 -4 3 -8 17 -8 31 l0 25 18 -24 c11 -13 19 -29 19 -36z
m-53 23 c-4 -3 -3 -11 3 -17 5 -7 5 -17 1 -24 -5 -9 -13 -6 -26 10 -11 13 -13
17 -5 11 18 -17 38 -17 22 -1 -15 15 -15 28 0 28 6 0 8 -3 5 -7z m110 -9 c-3
-3 -12 -4 -19 -1 -8 3 -5 6 6 6 11 1 17 -2 13 -5z m50 0 c-3 -3 -12 -4 -19 -1
-8 3 -5 6 6 6 11 1 17 -2 13 -5z m64 -7 c-6 -8 -7 -18 -3 -22 4 -5 1 -5 -6 -1
-10 6 -10 11 -1 22 6 8 14 14 16 14 3 0 0 -6 -6 -13z m-36 -26 c3 -16 0 -21
-12 -19 -9 2 -18 10 -20 18 -4 13 -3 13 6 0 9 -12 11 -11 11 9 0 28 9 23 15
-8z"/>
<path d="M2206 1173 c-11 -11 -6 -23 9 -23 8 0 15 4 15 9 0 13 -16 22 -24 14z"/>
<path d="M2220 781 c0 -5 5 -13 10 -16 6 -3 10 -2 10 4 0 5 -4 13 -10 16 -5 3
-10 2 -10 -4z"/>
<path d="M2602 1198 c2 -36 7 -44 26 -46 17 -3 22 2 23 20 0 13 3 17 6 10 2
-6 9 -10 14 -6 5 3 9 1 9 -5 0 -5 -3 -11 -7 -14 -5 -2 -3 -3 3 -1 6 1 17 -3
23 -9 7 -7 11 -7 11 -1 0 6 7 11 15 11 8 0 15 -6 15 -14 0 -7 6 -13 14 -13 8
0 17 -4 20 -9 8 -13 -37 0 -47 13 -5 6 -7 -3 -5 -20 3 -23 1 -31 -9 -27 -10 4
-13 -29 -13 -167 0 -134 3 -171 13 -167 6 2 18 -2 25 -10 12 -12 9 -13 -13 -7
-23 6 -26 4 -23 -12 2 -13 13 -20 38 -22 19 -2 32 0 28 3 -4 4 0 21 8 37 12
23 15 65 13 206 -1 102 -5 182 -11 190 -8 9 -2 12 23 13 19 1 38 1 43 0 30 -6
46 12 46 50 0 38 -13 52 -23 27 -4 -10 -8 -10 -15 1 -8 11 -10 11 -15 0 -4
-10 -6 -10 -6 -1 -1 9 -28 12 -100 12 l-100 0 -4 -42 -4 -43 -1 43 c-1 23 -7
42 -13 42 -6 0 -9 -17 -7 -42z m263 -8 c3 -5 1 -10 -4 -10 -6 0 -11 5 -11 10
0 6 2 10 4 10 3 0 8 -4 11 -10z m-108 -352 c-1 -46 -3 -11 -3 77 0 88 2 125 3
83 2 -42 2 -114 0 -160z"/>
<path d="M3042 973 l3 -268 40 0 40 0 0 265 0 265 -43 3 -42 3 2 -268z m68 -3
c0 -143 -3 -260 -7 -260 -5 0 -7 117 -5 260 1 143 5 260 7 260 3 0 5 -117 5
-260z m-20 -215 c0 -8 -4 -15 -10 -15 -5 0 -7 7 -4 15 4 8 8 15 10 15 2 0 4
-7 4 -15z m-26 -20 c3 -8 1 -15 -4 -15 -6 0 -10 7 -10 15 0 8 2 15 4 15 2 0 6
-7 10 -15z"/>
<path d="M3270 994 c0 -208 2 -245 14 -241 8 3 17 -1 20 -10 4 -10 -1 -17 -15
-20 -44 -12 8 -23 108 -23 94 0 128 9 108 28 -4 4 -10 1 -12 -5 -8 -22 -19
-14 -20 15 -1 15 1 21 4 15 2 -7 11 -13 19 -13 16 0 18 18 4 40 -6 10 -10 11
-10 3 0 -8 -12 -13 -27 -12 l-28 1 25 8 c18 6 5 8 -42 7 -48 -1 -69 -6 -73
-16 -3 -7 -8 -11 -12 -7 -3 3 2 15 12 26 18 20 18 21 -1 35 -16 13 -16 14 -1
9 16 -6 17 8 17 200 l0 206 -45 0 -45 0 0 -246z m80 -104 c0 -5 -4 -10 -10
-10 -5 0 -10 5 -10 10 0 6 5 10 10 10 6 0 10 -4 10 -10z m-33 -42 c-3 -8 -6
-5 -6 6 -1 11 2 17 5 13 3 -3 4 -12 1 -19z m7 -58 c-6 -6 -10 -3 -10 10 0 13
4 16 10 10 7 -7 7 -13 0 -20z"/>
<path d="M3662 988 c3 -229 5 -253 20 -252 10 1 14 -4 11 -12 -2 -7 -12 -10
-21 -7 -15 4 -15 3 -2 -6 18 -14 228 -13 236 1 3 5 0 17 -8 26 -12 15 -11 16
4 3 16 -12 20 -10 38 10 24 30 25 40 3 33 -17 -5 -17 -5 -1 8 14 12 17 39 18
197 1 160 -1 183 -15 178 -8 -4 -14 -3 -12 1 1 5 -10 22 -25 40 l-27 32 -111
0 -110 0 2 -252z m228 207 c0 -5 -5 -3 -10 5 -5 8 -10 20 -10 25 0 6 5 3 10
-5 5 -8 10 -19 10 -25z m-9 -22 c13 -16 12 -17 -2 -5 -14 10 -18 10 -22 -2 -4
-9 -2 -18 4 -22 6 -3 9 -75 8 -190 -1 -103 -5 -181 -10 -178 -5 3 -9 1 -9 -4
0 -5 -7 -9 -15 -9 -21 0 -19 15 3 20 13 4 11 5 -5 6 -21 1 -28 -9 -24 -31 2
-13 -6 -9 -20 9 -10 11 -10 14 -1 9 7 -4 12 -2 12 4 0 7 -12 10 -27 8 l-27 -3
3 153 c3 148 2 154 -17 148 -12 -4 -19 -2 -19 7 0 8 7 14 15 13 8 0 17 5 20
13 3 9 0 11 -9 6 -8 -5 -10 -4 -6 0 4 5 -2 14 -13 20 -18 9 -9 11 44 9 40 -2
66 1 66 7 0 6 4 8 9 5 5 -3 11 1 15 9 7 19 11 19 27 -2z m-204 -25 c-3 -8 -6
-5 -6 6 -1 11 2 17 5 13 3 -3 4 -12 1 -19z m0 -50 c-3 -8 -6 -5 -6 6 -1 11 2
17 5 13 3 -3 4 -12 1 -19z m217 -3 c3 -8 1 -15 -4 -15 -6 0 -10 7 -10 15 0 8
2 15 4 15 2 0 6 -7 10 -15z m-217 -202 c-3 -10 -5 -4 -5 12 0 17 2 24 5 18 2
-7 2 -21 0 -30z m63 17 c0 -5 -4 -10 -10 -10 -5 0 -10 5 -10 10 0 6 5 10 10
10 6 0 10 -4 10 -10z m210 -20 c0 -5 -2 -10 -4 -10 -3 0 -8 5 -11 10 -3 6 -1
10 4 10 6 0 11 -4 11 -10z m-273 -57 c-3 -10 -5 -4 -5 12 0 17 2 24 5 18 2 -7
2 -21 0 -30z m238 -2 c3 -5 1 -12 -5 -16 -5 -3 -10 1 -10 9 0 18 6 21 15 7z
m-193 -33 c-8 -8 -9 -4 -5 13 4 13 8 18 11 10 2 -7 -1 -18 -6 -23z m-45 -10
c-3 -8 -6 -5 -6 6 -1 11 2 17 5 13 3 -3 4 -12 1 -19z m73 -28 c0 -11 -7 -20
-15 -20 -8 0 -15 9 -15 20 0 11 7 20 15 20 8 0 15 -9 15 -20z m-60 -4 c0 -3
-4 -8 -10 -11 -5 -3 -10 -1 -10 4 0 6 5 11 10 11 6 0 10 -2 10 -4z m197 -26
c10 -13 8 -16 -15 -17 -15 0 -19 1 -10 4 11 3 15 10 11 21 -6 18 -5 17 14 -8z"/>
<path d="M4110 969 l0 -270 43 3 42 3 3 268 3 267 -45 0 -46 0 0 -271z"/>
<path d="M2701 1114 c0 -11 3 -14 6 -6 3 7 2 16 -1 19 -3 4 -6 -2 -5 -13z"/>
<path d="M1805 780 c3 -5 8 -10 11 -10 2 0 4 5 4 10 0 6 -5 10 -11 10 -5 0 -7
-4 -4 -10z"/>
<path d="M3278 733 c7 -3 16 -2 19 1 4 3 -2 6 -13 5 -11 0 -14 -3 -6 -6z"/>
</g>
</svg>
